<?xml version="1.0" encoding="utf-8"?>
<!-- Generator: Adobe Illustrator 21.0.0, SVG Export Plug-In . SVG Version: 6.00 Build 0)  -->
<svg version="1.1" id="Layer_1" xmlns="http://www.w3.org/2000/svg" xmlns:xlink="http://www.w3.org/1999/xlink" x="0px" y="0px"
	 viewBox="0 0 60 60" style="enable-background:new 0 0 60 60;" xml:space="preserve">
<style type="text/css">
	.st0{fill:url(#SVGID_1_);stroke:#0F6FFF;}
	.st1{fill:url(#SVGID_2_);stroke:#0F6FFF;}
	.st2{fill:url(#SVGID_3_);stroke:#0F6FFF;}
	.st3{fill:none;stroke:#0F6FFF;}
</style>
<g transform="translate(0 2)">
	<linearGradient id="SVGID_1_" gradientUnits="userSpaceOnUse" x1="29.9968" y1="38" x2="29.9968" y2="-204.3489">
		<stop  offset="0" style="stop-color:#FFFFFF"/>
		<stop  offset="1" style="stop-color:#0F6FFF"/>
	</linearGradient>
	<path class="st0" d="M19.2,18.4h21.6c1.4,0,2.4,1.1,2.4,2.4l0,0c0,1.4-1.1,2.4-2.4,2.4H19.2c-1.4,0-2.4-1.1-2.4-2.4l0,0
		C16.7,19.5,17.8,18.4,19.2,18.4z"/>
	<linearGradient id="SVGID_2_" gradientUnits="userSpaceOnUse" x1="30.1968" y1="38" x2="30.1968" y2="-204.3489">
		<stop  offset="0" style="stop-color:#FFFFFF"/>
		<stop  offset="1" style="stop-color:#0F6FFF"/>
	</linearGradient>
	<path class="st1" d="M18.4,30H42c1.4,0,2.4,1.1,2.4,2.4l0,0c0,1.4-1.1,2.4-2.4,2.4H18.4c-1.4,0-2.4-1.1-2.4-2.4l0,0
		C15.9,31.1,17,30,18.4,30z"/>
	<linearGradient id="SVGID_3_" gradientUnits="userSpaceOnUse" x1="30.4" y1="38" x2="30.4" y2="-204.3489">
		<stop  offset="0" style="stop-color:#FFFFFF"/>
		<stop  offset="1" style="stop-color:#0F6FFF"/>
	</linearGradient>
	<path class="st2" d="M20.4,41.7h20c1.4,0,2.4,1.1,2.4,2.4l0,0c0,1.4-1.1,2.4-2.4,2.4h-20c-1.4,0-2.4-1.1-2.4-2.4l0,0
		C18,42.8,19.1,41.7,20.4,41.7z"/>
	<path class="st3" d="M0,3.7h5.7c0.9,0,1.6,0.7,1.6,1.6v45.3c0,0.9,0.7,1.6,1.6,1.6h41.9c0.9,0,1.6-0.7,1.6-1.6V5.3
		c0-0.9,0.7-1.6,1.6-1.6h6"/>
</g>
</svg>
